<mxfile host="app.diagrams.net" modified="2021-07-27T05:42:04.805Z" agent="5.0 (Windows NT 10.0; Win64; x64) AppleWebKit/537.36 (KHTML, like Gecko) Chrome/92.0.4515.107 Safari/537.36" etag="iAnIntW5oM2gojCzzXmx" version="14.9.2" type="github">
  <diagram id="7u5CSR-1bIaTYrTTK4JL" name="第 1 页">
    <mxGraphModel dx="1221" dy="1823" grid="1" gridSize="10" guides="1" tooltips="1" connect="1" arrows="1" fold="1" page="1" pageScale="1" pageWidth="827" pageHeight="1169" math="0" shadow="0">
      <root>
        <mxCell id="0" />
        <mxCell id="1" parent="0" />
        <mxCell id="H2ZAbzM-s1vH2AiNNZ1o-2" value="合并" style="edgeStyle=orthogonalEdgeStyle;rounded=0;orthogonalLoop=1;jettySize=auto;html=1;entryX=0.5;entryY=0;entryDx=0;entryDy=0;" edge="1" parent="1" source="ekZnBHrTn4lVR_nXKOUL-1" target="ekZnBHrTn4lVR_nXKOUL-2">
          <mxGeometry relative="1" as="geometry">
            <mxPoint x="430" y="320" as="targetPoint" />
          </mxGeometry>
        </mxCell>
        <mxCell id="ekZnBHrTn4lVR_nXKOUL-1" value="clue_phone&lt;br&gt;clue_id" style="rounded=0;whiteSpace=wrap;html=1;" parent="1" vertex="1">
          <mxGeometry x="370" y="-40" width="120" height="60" as="geometry" />
        </mxCell>
        <mxCell id="ekZnBHrTn4lVR_nXKOUL-8" value="" style="edgeStyle=orthogonalEdgeStyle;rounded=0;orthogonalLoop=1;jettySize=auto;html=1;exitX=0.5;exitY=1;exitDx=0;exitDy=0;" parent="1" source="H2ZAbzM-s1vH2AiNNZ1o-44" target="ekZnBHrTn4lVR_nXKOUL-7" edge="1">
          <mxGeometry relative="1" as="geometry">
            <mxPoint x="430" y="350" as="sourcePoint" />
          </mxGeometry>
        </mxCell>
        <mxCell id="H2ZAbzM-s1vH2AiNNZ1o-9" value="A、B、C" style="edgeLabel;html=1;align=center;verticalAlign=middle;resizable=0;points=[];" vertex="1" connectable="0" parent="ekZnBHrTn4lVR_nXKOUL-8">
          <mxGeometry x="-0.26" y="-2" relative="1" as="geometry">
            <mxPoint as="offset" />
          </mxGeometry>
        </mxCell>
        <mxCell id="H2ZAbzM-s1vH2AiNNZ1o-13" style="edgeStyle=orthogonalEdgeStyle;rounded=0;orthogonalLoop=1;jettySize=auto;html=1;exitX=0.5;exitY=1;exitDx=0;exitDy=0;entryX=0.5;entryY=0;entryDx=0;entryDy=0;" edge="1" parent="1" source="ekZnBHrTn4lVR_nXKOUL-2" target="H2ZAbzM-s1vH2AiNNZ1o-12">
          <mxGeometry relative="1" as="geometry" />
        </mxCell>
        <mxCell id="ekZnBHrTn4lVR_nXKOUL-2" value="clue_user&lt;br&gt;uid&lt;br&gt;用户主数据" style="rounded=0;whiteSpace=wrap;html=1;" parent="1" vertex="1">
          <mxGeometry x="370" y="80" width="120" height="60" as="geometry" />
        </mxCell>
        <mxCell id="ekZnBHrTn4lVR_nXKOUL-6" value="" style="edgeStyle=orthogonalEdgeStyle;rounded=0;orthogonalLoop=1;jettySize=auto;html=1;" parent="1" source="ekZnBHrTn4lVR_nXKOUL-4" target="ekZnBHrTn4lVR_nXKOUL-5" edge="1">
          <mxGeometry relative="1" as="geometry" />
        </mxCell>
        <mxCell id="ekZnBHrTn4lVR_nXKOUL-4" value="clue_phone&lt;br&gt;clue_id" style="rounded=0;whiteSpace=wrap;html=1;" parent="1" vertex="1">
          <mxGeometry x="1220" width="120" height="60" as="geometry" />
        </mxCell>
        <mxCell id="ekZnBHrTn4lVR_nXKOUL-5" value="clue_shop_phone&lt;br&gt;clue_id" style="rounded=0;whiteSpace=wrap;html=1;" parent="1" vertex="1">
          <mxGeometry x="1220" y="140" width="120" height="60" as="geometry" />
        </mxCell>
        <mxCell id="H2ZAbzM-s1vH2AiNNZ1o-5" value="" style="edgeStyle=orthogonalEdgeStyle;rounded=0;orthogonalLoop=1;jettySize=auto;html=1;entryX=0.5;entryY=0;entryDx=0;entryDy=0;" edge="1" parent="1" target="H2ZAbzM-s1vH2AiNNZ1o-4">
          <mxGeometry relative="1" as="geometry">
            <mxPoint x="430" y="545" as="sourcePoint" />
            <mxPoint x="650" y="655" as="targetPoint" />
            <Array as="points">
              <mxPoint x="430" y="595" />
              <mxPoint x="650" y="595" />
            </Array>
          </mxGeometry>
        </mxCell>
        <mxCell id="ekZnBHrTn4lVR_nXKOUL-7" value="表1&lt;br&gt;旧模式" style="rounded=0;whiteSpace=wrap;html=1;" parent="1" vertex="1">
          <mxGeometry x="370" y="480" width="120" height="60" as="geometry" />
        </mxCell>
        <mxCell id="ekZnBHrTn4lVR_nXKOUL-9" value="&lt;div style=&quot;text-align: left&quot;&gt;&lt;span&gt;history +1&lt;/span&gt;&lt;/div&gt;&lt;div style=&quot;text-align: left&quot;&gt;&lt;span&gt;uid 有分配上限，重复留资时刷新&lt;/span&gt;&lt;/div&gt;" style="text;html=1;strokeColor=none;fillColor=none;align=center;verticalAlign=middle;whiteSpace=wrap;rounded=0;" parent="1" vertex="1">
          <mxGeometry x="510" y="90" width="200" height="40" as="geometry" />
        </mxCell>
        <mxCell id="H2ZAbzM-s1vH2AiNNZ1o-3" value="&lt;div style=&quot;text-align: left&quot;&gt;通过补充分配，使线索在各个模式中流转&lt;/div&gt;" style="text;html=1;strokeColor=none;fillColor=none;align=center;verticalAlign=middle;whiteSpace=wrap;rounded=0;" vertex="1" parent="1">
          <mxGeometry x="1370" y="410" width="200" height="40" as="geometry" />
        </mxCell>
        <mxCell id="H2ZAbzM-s1vH2AiNNZ1o-39" value="" style="edgeStyle=orthogonalEdgeStyle;rounded=0;orthogonalLoop=1;jettySize=auto;html=1;" edge="1" parent="1" source="H2ZAbzM-s1vH2AiNNZ1o-4" target="H2ZAbzM-s1vH2AiNNZ1o-38">
          <mxGeometry relative="1" as="geometry" />
        </mxCell>
        <mxCell id="H2ZAbzM-s1vH2AiNNZ1o-4" value="分配DCC" style="rounded=0;whiteSpace=wrap;html=1;" vertex="1" parent="1">
          <mxGeometry x="590" y="650" width="120" height="60" as="geometry" />
        </mxCell>
        <mxCell id="H2ZAbzM-s1vH2AiNNZ1o-6" value="clue_shop_phone&lt;br&gt;多个字段" style="rounded=0;whiteSpace=wrap;html=1;" vertex="1" parent="1">
          <mxGeometry x="1345" y="310" width="120" height="60" as="geometry" />
        </mxCell>
        <mxCell id="H2ZAbzM-s1vH2AiNNZ1o-8" value="电话客服分配" style="text;html=1;strokeColor=none;fillColor=none;align=center;verticalAlign=middle;whiteSpace=wrap;rounded=0;" vertex="1" parent="1">
          <mxGeometry x="530" y="200" width="100" height="20" as="geometry" />
        </mxCell>
        <mxCell id="H2ZAbzM-s1vH2AiNNZ1o-32" style="edgeStyle=orthogonalEdgeStyle;rounded=0;orthogonalLoop=1;jettySize=auto;html=1;exitX=0.5;exitY=1;exitDx=0;exitDy=0;" edge="1" parent="1" source="H2ZAbzM-s1vH2AiNNZ1o-44" target="H2ZAbzM-s1vH2AiNNZ1o-29">
          <mxGeometry relative="1" as="geometry" />
        </mxCell>
        <mxCell id="H2ZAbzM-s1vH2AiNNZ1o-33" style="edgeStyle=orthogonalEdgeStyle;rounded=0;orthogonalLoop=1;jettySize=auto;html=1;exitX=0.5;exitY=1;exitDx=0;exitDy=0;entryX=0.5;entryY=0;entryDx=0;entryDy=0;" edge="1" parent="1" source="H2ZAbzM-s1vH2AiNNZ1o-44" target="H2ZAbzM-s1vH2AiNNZ1o-30">
          <mxGeometry relative="1" as="geometry" />
        </mxCell>
        <mxCell id="H2ZAbzM-s1vH2AiNNZ1o-34" style="edgeStyle=orthogonalEdgeStyle;rounded=0;orthogonalLoop=1;jettySize=auto;html=1;exitX=0.5;exitY=1;exitDx=0;exitDy=0;entryX=0.5;entryY=0;entryDx=0;entryDy=0;" edge="1" parent="1" source="H2ZAbzM-s1vH2AiNNZ1o-44" target="H2ZAbzM-s1vH2AiNNZ1o-31">
          <mxGeometry relative="1" as="geometry" />
        </mxCell>
        <mxCell id="H2ZAbzM-s1vH2AiNNZ1o-45" value="" style="edgeStyle=orthogonalEdgeStyle;rounded=0;orthogonalLoop=1;jettySize=auto;html=1;" edge="1" parent="1" source="H2ZAbzM-s1vH2AiNNZ1o-12" target="H2ZAbzM-s1vH2AiNNZ1o-44">
          <mxGeometry relative="1" as="geometry" />
        </mxCell>
        <mxCell id="H2ZAbzM-s1vH2AiNNZ1o-12" value="线索清洗" style="rounded=0;whiteSpace=wrap;html=1;" vertex="1" parent="1">
          <mxGeometry x="370" y="180" width="120" height="60" as="geometry" />
        </mxCell>
        <mxCell id="H2ZAbzM-s1vH2AiNNZ1o-35" style="edgeStyle=orthogonalEdgeStyle;rounded=0;orthogonalLoop=1;jettySize=auto;html=1;exitX=0.5;exitY=1;exitDx=0;exitDy=0;" edge="1" parent="1" source="H2ZAbzM-s1vH2AiNNZ1o-29">
          <mxGeometry relative="1" as="geometry">
            <mxPoint x="650" y="650" as="targetPoint" />
          </mxGeometry>
        </mxCell>
        <mxCell id="H2ZAbzM-s1vH2AiNNZ1o-29" value="表2&lt;br&gt;新模式" style="rounded=0;whiteSpace=wrap;html=1;" vertex="1" parent="1">
          <mxGeometry x="510" y="480" width="120" height="60" as="geometry" />
        </mxCell>
        <mxCell id="H2ZAbzM-s1vH2AiNNZ1o-36" style="edgeStyle=orthogonalEdgeStyle;rounded=0;orthogonalLoop=1;jettySize=auto;html=1;exitX=0.5;exitY=1;exitDx=0;exitDy=0;" edge="1" parent="1" source="H2ZAbzM-s1vH2AiNNZ1o-30">
          <mxGeometry relative="1" as="geometry">
            <mxPoint x="650" y="650" as="targetPoint" />
          </mxGeometry>
        </mxCell>
        <mxCell id="H2ZAbzM-s1vH2AiNNZ1o-30" value="表3&lt;br&gt;自营" style="rounded=0;whiteSpace=wrap;html=1;" vertex="1" parent="1">
          <mxGeometry x="660" y="480" width="120" height="60" as="geometry" />
        </mxCell>
        <mxCell id="H2ZAbzM-s1vH2AiNNZ1o-37" style="edgeStyle=orthogonalEdgeStyle;rounded=0;orthogonalLoop=1;jettySize=auto;html=1;exitX=0.5;exitY=1;exitDx=0;exitDy=0;" edge="1" parent="1" source="H2ZAbzM-s1vH2AiNNZ1o-31">
          <mxGeometry relative="1" as="geometry">
            <mxPoint x="650" y="650" as="targetPoint" />
          </mxGeometry>
        </mxCell>
        <mxCell id="H2ZAbzM-s1vH2AiNNZ1o-31" value="表4&lt;br&gt;采集模式" style="rounded=0;whiteSpace=wrap;html=1;" vertex="1" parent="1">
          <mxGeometry x="800" y="480" width="120" height="60" as="geometry" />
        </mxCell>
        <mxCell id="H2ZAbzM-s1vH2AiNNZ1o-41" value="" style="edgeStyle=orthogonalEdgeStyle;rounded=0;orthogonalLoop=1;jettySize=auto;html=1;" edge="1" parent="1" source="H2ZAbzM-s1vH2AiNNZ1o-38" target="H2ZAbzM-s1vH2AiNNZ1o-40">
          <mxGeometry relative="1" as="geometry" />
        </mxCell>
        <mxCell id="H2ZAbzM-s1vH2AiNNZ1o-38" value="线索跟进" style="rounded=0;whiteSpace=wrap;html=1;" vertex="1" parent="1">
          <mxGeometry x="590" y="790" width="120" height="60" as="geometry" />
        </mxCell>
        <mxCell id="H2ZAbzM-s1vH2AiNNZ1o-42" style="edgeStyle=orthogonalEdgeStyle;rounded=0;orthogonalLoop=1;jettySize=auto;html=1;exitX=0;exitY=0.5;exitDx=0;exitDy=0;entryX=0;entryY=0.5;entryDx=0;entryDy=0;" edge="1" parent="1" source="H2ZAbzM-s1vH2AiNNZ1o-40" target="ekZnBHrTn4lVR_nXKOUL-2">
          <mxGeometry relative="1" as="geometry">
            <mxPoint x="350" y="300" as="targetPoint" />
            <Array as="points">
              <mxPoint x="320" y="960" />
              <mxPoint x="320" y="110" />
            </Array>
          </mxGeometry>
        </mxCell>
        <mxCell id="H2ZAbzM-s1vH2AiNNZ1o-43" value="数据归集" style="edgeLabel;html=1;align=center;verticalAlign=middle;resizable=0;points=[];" vertex="1" connectable="0" parent="H2ZAbzM-s1vH2AiNNZ1o-42">
          <mxGeometry x="0.1763" y="-3" relative="1" as="geometry">
            <mxPoint as="offset" />
          </mxGeometry>
        </mxCell>
        <mxCell id="H2ZAbzM-s1vH2AiNNZ1o-40" value="下订成交" style="whiteSpace=wrap;html=1;rounded=0;" vertex="1" parent="1">
          <mxGeometry x="590" y="930" width="120" height="60" as="geometry" />
        </mxCell>
        <mxCell id="H2ZAbzM-s1vH2AiNNZ1o-44" value="分配商家" style="rounded=0;whiteSpace=wrap;html=1;" vertex="1" parent="1">
          <mxGeometry x="370" y="300" width="120" height="60" as="geometry" />
        </mxCell>
        <mxCell id="H2ZAbzM-s1vH2AiNNZ1o-46" value="" style="rounded=0;whiteSpace=wrap;html=1;dashed=1;strokeWidth=2;fillColor=none;" vertex="1" parent="1">
          <mxGeometry x="220" y="70" width="750" height="930" as="geometry" />
        </mxCell>
        <mxCell id="H2ZAbzM-s1vH2AiNNZ1o-47" value="唯一线索" style="text;html=1;strokeColor=none;fillColor=none;align=center;verticalAlign=middle;whiteSpace=wrap;rounded=0;dashed=1;" vertex="1" parent="1">
          <mxGeometry x="850" y="90" width="80" height="20" as="geometry" />
        </mxCell>
      </root>
    </mxGraphModel>
  </diagram>
</mxfile>
